<svg version="1.1" id="_x36_" xmlns="http://www.w3.org/2000/svg" x="0" y="0" viewBox="0 0 734.661 800" style="enable-background:new 0 0 734.661 800" xml:space="preserve"><style>.st0{fill:#040000}</style><path class="st0" d="M270.312 295.578s-1.141-7.904-2.269-11.285c-1.128-3.395-1.128-9.031-2.255-12.413-1.114-3.394-5.072-10.157-5.072-12.975 0-2.819 0-14.654-2.819-15.781-2.816-1.128-3.381 7.89-5.071 10.708-1.691 2.818-5.072 11.837-5.072 11.837l-1.129 12.989s-9.593-5.074-14.089-9.018c-3.395-7.339-12.99-8.468-14.117-10.172-1.127-1.69-30.462-28.206-30.462-28.206l4.51-7.327-14.09-17.478-.563-6.207-1.126-3.386-.563-7.334-2.818-3.945-.563-28.2 10.144-11.835-7.326-11.293s-15.231-.557-19.753-3.945c-1.129-3.946-7.328-5.073-7.328-6.764 0-1.697 1.69-5.641-1.128-7.904-2.818-2.254-6.763-5.071-6.763-5.071l7.891-2.262s1.126-5.072 1.126-9.017c0-3.946-1.691-7.904-8.454-9.025 2.254-3.945-2.253-9.031-2.253-9.031s-.563-14.09-2.268-13.534c-1.676-.556-2.239 13.534-2.239 13.534s-4.524 5.086-2.257 9.031c-6.789 1.121-8.466 5.08-8.466 9.025 0 3.945 1.126 9.017 1.126 9.017l7.905 2.262s-3.961 2.817-6.779 5.071c-2.816 2.263-1.126 6.207-1.126 7.904 0 1.69-6.211 2.818-7.34 6.764-4.496 3.388-19.724 3.945-19.724 3.945L90.39 145.55l10.16 11.835-.577 28.2-2.818 3.945-.55 7.334-1.14 3.386-.551 6.207-14.117 17.478 4.522 7.327s-29.334 26.517-30.46 28.206c-1.128 1.704-10.723 2.833-14.104 10.172-4.508 3.944-14.104 9.018-14.104 9.018l-1.127-12.989s-3.367-9.019-5.071-11.837c-1.691-2.817-2.268-11.836-5.072-10.708-2.819 1.127-2.819 12.962-2.819 15.781 0 2.818-3.958 9.581-5.087 12.975-1.127 3.383-1.127 9.019-2.253 12.413-1.128 3.381-2.255 11.285-2.255 11.285l-1.126 5.073 2.253 5.635.565 6.199 4.508 3.946 6.764-.549s35.533 226.164 35.533 228.981c0 2.818-4.496 6.763-.551 11.286l3.946 4.522s-8.469 12.964-2.269 21.417c6.213 8.467 23.697 23.135 24.262 38.915.563 15.807-1.128 33.842 6.198 37.815 2.269 3.919-.549 7.327 2.269 9.555 2.805 2.254 10.146 9.044 9.595 14.117-.577 5.073-7.919 1.128-5.099 7.891 2.845 6.763 5.651 6.763 5.099 8.467-.577 1.704 7.89 15.231 20.29 24.262-4.51 1.677-4.51 8.441.563 11.259h5.287v16.88c0 2.979-2.229 5.193 1.476 6.682 0 3.731-3.705 10.387-1.476 16.318 2.228 5.93 8.158 11.137 8.158 14.116 0 2.953 2.241 9.635 7.434 9.635 5.194 0 7.409-6.682 7.409-9.635 0-2.979 5.944-8.186 8.157-14.116 2.24-5.931-1.475-12.587-1.475-16.318 3.715-1.489 1.475-3.703 1.475-6.682v-16.88h5.288c5.099-2.818 5.099-9.582.577-11.259 12.412-9.031 20.865-22.558 20.303-24.262-.563-1.704 2.254-1.704 5.072-8.467 2.819-6.763-4.51-2.819-5.072-7.891-.563-5.073 6.762-11.862 9.581-14.117 2.82-2.228 0-5.635 2.255-9.555 7.34-3.973 5.651-22.008 6.213-37.815.577-15.781 18.049-30.448 24.249-38.915 6.198-8.453-2.254-21.417-2.254-21.417l3.944-4.522c3.959-4.522-.563-8.468-.563-11.286 0-2.817 35.533-228.981 35.533-228.981l6.763.549 4.522-3.946.552-6.199 2.267-5.635-1.13-5.073zm-119.457 4.536-6.053 236.899H82.001L58.718 303.161l92.137-3.047zM24.299 316.311l17.204-11.138L67.83 539.04l-9.112 3.06-34.419-225.789zm88.084 340.173s-3.047-8.107-8.104-8.107c-5.047 0-5.047 8.107-5.047 8.107l-8.106-2.027s2.013-28.328-4.052-40.486c-6.079-12.144-23.295-26.328-23.295-37.466 0-11.138 4.052-14.185 20.262-14.185 16.183 0 49.597 1.022 49.597 1.022v93.141h-21.255zm75.924-42.512c-6.065 12.158-4.053 40.486-4.053 40.486l-8.104 2.027s0-8.107-5.047-8.107c-5.071 0-8.104 8.107-8.104 8.107h-21.256v-93.141s33.401-1.022 49.598-1.022c16.208 0 20.262 3.046 20.262 14.185 0 11.137-17.217 25.32-23.296 37.465zm22.276-76.959h-48.564l8.064-236.899 72.893 10.131-32.393 226.768zM279.664 117.595c1.609 8.119 9.259 18.539-3.717 22.242-12.976 3.711-25.938-37.069-5.555-46.328 20.382-9.253 46.323.007 48.175 35.218 1.865 35.198-25.952 55.607-64.855 44.47-56.694-16.218-42.551-98.67-20.382-107.48-18.534 1.852-36.312-33.587-18.534-38.915 19.849-5.959 11.111 7.407 5.555 12.962-5.555 5.562 13.5 15.097 32.033 7.675 18.53-7.413 60.063-28.267 119.938-2.113 49.356 21.565 90.779 83.4 107.473 118.598 16.68 35.212 50.026 57.446 64.855 44.484 14.827-12.977 22.235 12.976 7.408 18.531-14.816 5.556 26.06 29.186 46.615 26.637 29.549-3.691 44.754-14.144 12.697-22.934-13.62-3.743-33.347-35.211-7.423-53.742 12.737-5.528 18.077 9.877 7.423 12.977-16.841 4.87 21.026 45.369 43.262 34.244 22.237-11.111 27.443-14.291 46.82-39.115 18.975-24.303 25.496-80.038 28.515-91.498 4.24-16.13 2.993 66.592 1.14 81.42-1.851 14.829-12.252 37.197-23.374 50.161-11.126 12.962-29.657 63.001-24.09 81.532 5.556 18.533 4.739 37.399 18.681 19.969 4.709-5.878 5.89-25.899 25.792-18.116 5.447 2.134-.282 28.166-22.262 36.968-17.661 7.06-32.972-3.528-36.515-32.983-5.556 11.111-16.022 23.43-17.659 9.421-2.361-20.035-9.419-50.644 20.839-80.125-37.331 35.373-62.063 43.625-109.339 24.1-35.318-14.586-72.247-55.607-87.088-57.446-14.829-1.852-35.212-11.124-18.532-14.828 16.667-3.703 20.384 3.704 16.667-3.703-3.704-7.408-51.06-105.923-103.77-126.018-41.855-15.956-92.241-9.642-116.746 5.554-27.242 16.894-33.36 79.702 0 87.11 33.359 7.401 59.285-11.118 51.877-33.36-7.406-22.242-27.789-14.835-25.924-5.569z"/><path class="st0" d="M477.352 199.378c-4.469-2.779-34.151-58.883-78.917-68.31-44.766-9.421-71.844 12.955-70.664 25.911 1.168 12.957-1.181 22.376-11.782 11.776-10.615-10.6-8.253-49.47 44.752-48.287 5.89-9.422 5.89-16.492 27.093-8.247 21.204 8.247 63.606 29.449 78.917 53.005 15.313 23.564 20.021 40.043 10.601 34.152zM129.976 20.107c-3.732 4.898.937 12.258.937 12.258s-.937 9.801-.937 17.164c-7.463 3.67-.927 29.42 6.547 29.42 7.489 0 14.023-25.751 6.548-29.42 0-7.362-.939-17.164-.939-17.164s4.67-7.36.939-12.258h-13.095z"/><path class="st0" d="M732.824 8.498h-378.04c-9.647-9.213-19.296 0-19.296 0H147.366c-9.649-7.353-24.114 1.838-24.114 1.838S103.955 8.498 89.49 8.498C82.243-6.216 31.599 6.654 31.599 21.38c0 14.702 50.644 27.584 57.891 12.87 14.465 0 33.761-1.838 33.761-1.838s14.465 9.198 24.114 1.838h188.122s9.649 9.198 19.296 0h378.04V8.498z"/></svg>