<svg version="1.1" id="_x34_" xmlns="http://www.w3.org/2000/svg" x="0" y="0" viewBox="0 0 522.585 800" style="enable-background:new 0 0 522.585 800" xml:space="preserve"><style>.st0{fill:#040000}.st1{fill:#050001}</style><path class="st0" d="M394.301 338.556s7.922-17.085 16.386-9.319c16.23 1.552 20.892 0 19.337 9.319 7.767 6.215 13.981 9.319 12.427 15.533-1.552 6.215 7.766 20.195 1.555 24.853-6.214 4.657-40.386 13.98-45.045 13.98-4.659 0-52.812-45.047-52.812-45.047l48.152-9.319z"/><path class="st1" d="m445.612 405.763-1.101-2.07C361.626 254.39 259.324 134.102 167.47 69.213 75.304 2.078-.071 1.824 1.326 2.017c-1.366 1.787 72.8 3.809 163.196 71.288 90.169 65.227 191.341 185.394 273.696 333.756l1.072 2.012 6.322-3.31z"/><path class="st0" d="M284.018 142.846c-1.36.454.201.375 3.073.04a4.555 4.555 0 0 0-3.073-.04zM510.795 507.86s-3.107-7.762-27.959-34.171c-18.128-19.261-57.471-48.147-62.13-48.147-4.659 0-4.659-6.215-3.107-21.748 1.555-15.533-26.405-74.557-24.853-93.195 1.555-18.637-12.426-37.281-20.192-45.047s1.555-17.085 7.767-18.638c6.214-1.552 10.873 6.209 20.192 4.657 9.319-1.552 17.086-7.762 17.086-7.762l21.745 10.872s6.214 12.423 10.873 18.637c4.659 6.215 10.874-7.766 12.426-24.852 1.552-17.085-4.659-32.619-7.767-38.83-3.107-6.215 0-12.426 0-12.426l9.319 9.319-1.552-15.533 7.767 1.555s-6.215-17.086-13.979-35.726c-1.555-32.619-35.725-46.597-60.578-48.152-24.853-1.552-41.938 9.321-41.938 9.321l-15.534 1.552-20.192 6.215 17.085 1.552-46.597 4.659 20.192 7.766s-14.797 2.337-21.779 3.147c2.901 1.048 4.694 4.619 4.694 4.619l-13.981 6.212 31.066-1.552-21.745 12.426h15.531l-12.426 12.426 23.3-7.767-17.086 10.874 17.086-4.659-3.107 9.319 15.533-4.659-1.552 7.766-26.365 29.185c-11.158-8.87-21.193-13.189-24.894-13.654-12.426-1.552-17.085 4.659-17.085 4.659-21.745 1.555-41.938 6.215-46.597 12.429-17.085 3.104-51.257 20.19-51.257 31.061-29.514 9.324-54.366 51.257-54.366 68.348-15.531 21.747-24.852 60.576-18.638 74.556-10.874 20.19-7.766 62.128 1.552 73.004 9.322 15.528 13.981 31.062 24.852 35.723 0 0-4.659 17.085 27.959 24.852 6.996 1.663 17.725.38 30.649-3.77 4.924 20.481 8.052 40.559 6.114 43.638-3.152 4.989-28.469 27.419-35.205 47.629-10.359 31.066-48.715 68.944-48.715 68.944s-28.463 21.853-28.434 29.557c.031 7.703 1.903 23.553 18.226 27.571 16.328 4.018 31.845 34.768 51.357 41.494 19.504 6.721 36.756 14.81 36.724 7.112-.026-7.704-7.759-15.375-7.759-15.375l-22.751-24.836-9.213-40.745s76.264-79.693 85.121-87.508c16.072-14.182 23.079-49.519 25.951-83.738 12.518 8.204 75.008 69.239 75.008 69.239l-6.214 45.047 10.873 31.067-4.659 51.257s-7.767 6.215-7.767 38.833c0 32.619 38.831 23.295 49.705 23.295 10.873 0 18.638-6.209 38.83-3.104 20.193 3.104 29.511-1.552 29.511-1.552s12.427-4.662 12.427-10.877c0-6.209-9.32-9.319-20.19-7.761-10.874 1.552-60.578-24.852-60.578-29.514 0-4.662 3.728-40.798 7.766-83.875 4.659-49.705 6.212-77.667 6.212-77.667s-1.553-12.423-7.767-20.19c-4.849-6.067-6.211-4.662-21.745-21.748-15.534-17.086-55.916-74.556-55.916-74.556l13.978-21.742 15.534-26.405 13.978-10.876c9.441-7.26 16.167-18.258 20.652-27.915 6.307 15.263 16.579 39.742 19.733 45 4.66 7.766 9.32 18.643 15.534 23.3 6.211 4.662 3.263 18.638 24.153 27.962 20.892 9.319 67.49 35.723 72.149 43.49 4.659 7.767-7.767 23.3-10.874 27.956-3.104 4.662 4.659 35.724 9.322 41.938 4.659 6.215 1.552-27.957 9.319-7.766 2.299 5.977 4.659 12.429 1.552 21.748-3.107 9.319-15.533 17.085-9.319 18.638 6.211 1.553 17.086-12.423 20.193-17.085 3.107-4.657-1.555 12.429 3.107 9.319 4.659-3.105 9.318-18.638 9.318-18.638s6.212 0 4.659-6.215c-1.552-6.213 7.767-60.574-9.318-80.769z"/><path class="st1" d="M11.784 7.92c.135.082 25.19 18.923 58.918 18.949 11.109-.003 19.886-.691 27.152-.689 7.281 0 12.975.686 18.176 3.286 5.198 2.601 10.069 7.189 15.509 15.352 16.558 24.862 33.49 48.12 71.217 60.668 18.585 6.19 31.908 11.858 41.235 18.923 9.316 7.074 14.749 15.454 17.807 27.616 6.333 25.243 25.158 54.643 54.836 65.285l1.043-2.926c-28.311-10.069-46.769-38.654-52.862-63.112-3.155-12.693-9.111-21.919-18.952-29.341-9.833-7.434-23.429-13.155-42.122-19.393-36.829-12.302-53.031-34.607-69.615-59.445-5.604-8.408-10.86-13.485-16.708-16.407-5.845-2.92-12.117-3.614-19.565-3.614-7.457.003-16.169.691-27.152.689-16.275.003-30.567-4.583-40.782-9.182-5.105-2.299-9.192-4.596-11.993-6.315a71.897 71.897 0 0 1-4.02-2.643l-.259-.187-1.863 2.486z"/></svg>